<mxfile host="Electron" agent="Mozilla/5.0 (X11; Linux x86_64) AppleWebKit/537.36 (KHTML, like Gecko) draw.io/26.0.4 Chrome/128.0.6613.186 Electron/32.2.5 Safari/537.36" version="26.0.4">
  <diagram name="Page-1" id="MzPWH7pSI_D7lWKFC7IN">
    <mxGraphModel dx="928" dy="998" grid="1" gridSize="10" guides="1" tooltips="1" connect="1" arrows="1" fold="1" page="1" pageScale="1" pageWidth="850" pageHeight="1100" math="0" shadow="0">
      <root>
        <mxCell id="0" />
        <mxCell id="1" parent="0" />
        <mxCell id="ct0kqxjitCNtduGSrw_o-8" style="edgeStyle=orthogonalEdgeStyle;rounded=0;orthogonalLoop=1;jettySize=auto;html=1;" edge="1" parent="1" source="ct0kqxjitCNtduGSrw_o-1" target="ct0kqxjitCNtduGSrw_o-5">
          <mxGeometry relative="1" as="geometry" />
        </mxCell>
        <mxCell id="ct0kqxjitCNtduGSrw_o-1" value="Real-time data" style="rounded=0;whiteSpace=wrap;html=1;verticalAlign=top;fontSize=20;fillColor=none;dashed=1;" vertex="1" parent="1">
          <mxGeometry x="20" y="290" width="170" height="420" as="geometry" />
        </mxCell>
        <mxCell id="ct0kqxjitCNtduGSrw_o-2" value="Click Streams" style="sketch=0;outlineConnect=0;fontColor=#232F3E;gradientColor=none;fillColor=#232F3D;strokeColor=none;dashed=0;verticalLabelPosition=bottom;verticalAlign=top;align=center;html=1;fontSize=12;fontStyle=0;aspect=fixed;pointerEvents=1;shape=mxgraph.aws4.client;" vertex="1" parent="1">
          <mxGeometry x="66" y="600" width="78" height="76" as="geometry" />
        </mxCell>
        <mxCell id="ct0kqxjitCNtduGSrw_o-3" value="" style="sketch=0;outlineConnect=0;fontColor=#232F3E;gradientColor=none;fillColor=#7AA116;strokeColor=none;dashed=0;verticalLabelPosition=bottom;verticalAlign=top;align=center;html=1;fontSize=12;fontStyle=0;aspect=fixed;pointerEvents=1;shape=mxgraph.aws4.bank;" vertex="1" parent="1">
          <mxGeometry x="66" y="330" width="78" height="78" as="geometry" />
        </mxCell>
        <mxCell id="ct0kqxjitCNtduGSrw_o-4" value="Metrics &amp;amp; Logs" style="sketch=0;outlineConnect=0;fontColor=#232F3E;gradientColor=none;fillColor=#232F3D;strokeColor=none;dashed=0;verticalLabelPosition=bottom;verticalAlign=top;align=center;html=1;fontSize=12;fontStyle=0;aspect=fixed;pointerEvents=1;shape=mxgraph.aws4.traditional_server;" vertex="1" parent="1">
          <mxGeometry x="82.5" y="462" width="45" height="78" as="geometry" />
        </mxCell>
        <mxCell id="ct0kqxjitCNtduGSrw_o-10" style="edgeStyle=orthogonalEdgeStyle;rounded=0;orthogonalLoop=1;jettySize=auto;html=1;" edge="1" parent="1" source="ct0kqxjitCNtduGSrw_o-5" target="ct0kqxjitCNtduGSrw_o-9">
          <mxGeometry relative="1" as="geometry" />
        </mxCell>
        <mxCell id="ct0kqxjitCNtduGSrw_o-5" value="Producers" style="rounded=0;whiteSpace=wrap;html=1;verticalAlign=top;fontSize=20;fillColor=none;dashed=1;" vertex="1" parent="1">
          <mxGeometry x="265" y="375" width="170" height="250" as="geometry" />
        </mxCell>
        <mxCell id="ct0kqxjitCNtduGSrw_o-6" value="Applications" style="sketch=0;outlineConnect=0;fontColor=#232F3E;gradientColor=none;fillColor=#ED7100;strokeColor=none;dashed=0;verticalLabelPosition=bottom;verticalAlign=top;align=center;html=1;fontSize=12;fontStyle=0;aspect=fixed;pointerEvents=1;shape=mxgraph.aws4.instance2;" vertex="1" parent="1">
          <mxGeometry x="326" y="545" width="48" height="48" as="geometry" />
        </mxCell>
        <mxCell id="ct0kqxjitCNtduGSrw_o-7" value="Kinesis Agent" style="sketch=0;outlineConnect=0;fontColor=#232F3E;gradientColor=none;fillColor=#232F3D;strokeColor=none;dashed=0;verticalLabelPosition=bottom;verticalAlign=top;align=center;html=1;fontSize=12;fontStyle=0;aspect=fixed;pointerEvents=1;shape=mxgraph.aws4.traditional_server;" vertex="1" parent="1">
          <mxGeometry x="329" y="413" width="45" height="78" as="geometry" />
        </mxCell>
        <mxCell id="ct0kqxjitCNtduGSrw_o-20" style="edgeStyle=orthogonalEdgeStyle;rounded=0;orthogonalLoop=1;jettySize=auto;html=1;" edge="1" parent="1" source="ct0kqxjitCNtduGSrw_o-9" target="ct0kqxjitCNtduGSrw_o-11">
          <mxGeometry relative="1" as="geometry" />
        </mxCell>
        <mxCell id="ct0kqxjitCNtduGSrw_o-9" value="Amazon Kinesis&lt;div&gt;Data Streams&lt;/div&gt;" style="sketch=0;points=[[0,0,0],[0.25,0,0],[0.5,0,0],[0.75,0,0],[1,0,0],[0,1,0],[0.25,1,0],[0.5,1,0],[0.75,1,0],[1,1,0],[0,0.25,0],[0,0.5,0],[0,0.75,0],[1,0.25,0],[1,0.5,0],[1,0.75,0]];outlineConnect=0;fontColor=#232F3E;fillColor=#8C4FFF;strokeColor=#ffffff;dashed=0;verticalLabelPosition=bottom;verticalAlign=top;align=center;html=1;fontSize=12;fontStyle=0;aspect=fixed;shape=mxgraph.aws4.resourceIcon;resIcon=mxgraph.aws4.kinesis_data_streams;" vertex="1" parent="1">
          <mxGeometry x="510" y="461" width="78" height="78" as="geometry" />
        </mxCell>
        <mxCell id="ct0kqxjitCNtduGSrw_o-11" value="Consumers" style="rounded=0;whiteSpace=wrap;html=1;verticalAlign=top;fontSize=20;fillColor=none;dashed=1;" vertex="1" parent="1">
          <mxGeometry x="670" y="260" width="150" height="480" as="geometry" />
        </mxCell>
        <mxCell id="ct0kqxjitCNtduGSrw_o-15" value="Application" style="sketch=0;outlineConnect=0;fontColor=#232F3E;gradientColor=none;fillColor=#ED7100;strokeColor=none;dashed=0;verticalLabelPosition=bottom;verticalAlign=top;align=center;html=1;fontSize=12;fontStyle=0;aspect=fixed;pointerEvents=1;shape=mxgraph.aws4.instance2;" vertex="1" parent="1">
          <mxGeometry x="721" y="310" width="48" height="48" as="geometry" />
        </mxCell>
        <mxCell id="ct0kqxjitCNtduGSrw_o-16" value="AWS Lambda" style="sketch=0;points=[[0,0,0],[0.25,0,0],[0.5,0,0],[0.75,0,0],[1,0,0],[0,1,0],[0.25,1,0],[0.5,1,0],[0.75,1,0],[1,1,0],[0,0.25,0],[0,0.5,0],[0,0.75,0],[1,0.25,0],[1,0.5,0],[1,0.75,0]];outlineConnect=0;fontColor=#232F3E;fillColor=#ED7100;strokeColor=#ffffff;dashed=0;verticalLabelPosition=bottom;verticalAlign=top;align=center;html=1;fontSize=12;fontStyle=0;aspect=fixed;shape=mxgraph.aws4.resourceIcon;resIcon=mxgraph.aws4.lambda;" vertex="1" parent="1">
          <mxGeometry x="706.5" y="400" width="78" height="78" as="geometry" />
        </mxCell>
        <mxCell id="ct0kqxjitCNtduGSrw_o-17" value="Amazon Data Firehose" style="sketch=0;points=[[0,0,0],[0.25,0,0],[0.5,0,0],[0.75,0,0],[1,0,0],[0,1,0],[0.25,1,0],[0.5,1,0],[0.75,1,0],[1,1,0],[0,0.25,0],[0,0.5,0],[0,0.75,0],[1,0.25,0],[1,0.5,0],[1,0.75,0]];outlineConnect=0;fontColor=#232F3E;fillColor=#8C4FFF;strokeColor=#ffffff;dashed=0;verticalLabelPosition=bottom;verticalAlign=top;align=center;html=1;fontSize=12;fontStyle=0;aspect=fixed;shape=mxgraph.aws4.resourceIcon;resIcon=mxgraph.aws4.kinesis_data_firehose;" vertex="1" parent="1">
          <mxGeometry x="705.5" y="510" width="78" height="78" as="geometry" />
        </mxCell>
        <mxCell id="ct0kqxjitCNtduGSrw_o-18" value="Managed Service&lt;div&gt;for Apache Flink&lt;/div&gt;" style="sketch=0;points=[[0,0,0],[0.25,0,0],[0.5,0,0],[0.75,0,0],[1,0,0],[0,1,0],[0.25,1,0],[0.5,1,0],[0.75,1,0],[1,1,0],[0,0.25,0],[0,0.5,0],[0,0.75,0],[1,0.25,0],[1,0.5,0],[1,0.75,0]];outlineConnect=0;fontColor=#232F3E;fillColor=#8C4FFF;strokeColor=#ffffff;dashed=0;verticalLabelPosition=bottom;verticalAlign=top;align=center;html=1;fontSize=12;fontStyle=0;aspect=fixed;shape=mxgraph.aws4.resourceIcon;resIcon=mxgraph.aws4.managed_service_for_apache_flink;" vertex="1" parent="1">
          <mxGeometry x="706.5" y="620" width="78" height="78" as="geometry" />
        </mxCell>
      </root>
    </mxGraphModel>
  </diagram>
</mxfile>
